<svg version="1" xmlns="http://www.w3.org/2000/svg" width="413.333" height="413.333" viewBox="0 0 310.000000 310.000000"><path d="M0 155v155h58c31.9 0 58-.2 58-.4s-3.5-2-7.7-4c-30.7-14.6-50.5-45.2-52-80.7-.9-20.2 2.3-35.9 10.6-52.1 5.4-10.6 10.4-17.1 20.4-26.4 9.4-8.8 19.9-15.3 30.7-19 13.3-4.7 20.2-5.4 49.6-5.4H195l.2-26.8.3-26.7h46l.3 120.7.2 120.8h68V0H0v155z"/><path d="M138.5 171.4c-8.6 2.1-14.7 5.7-21.5 12.5-8 8.2-11.3 14.2-13.6 24.9-1.5 7.1-1.6 9.3-.6 16 3 19.3 17.7 36.1 35.3 40.1 2.4.6 16.2 1.1 30.7 1.1H195v-96l-25.7.1c-16.7 0-27.6.5-30.8 1.3z"/></svg>