<svg version="1" xmlns="http://www.w3.org/2000/svg" width="568" height="568" viewBox="0 0 426.000000 426.000000"><path d="M75.4 19.8c-.1 16-.6 23.1-2.8 37.6-1.5 9.8-2.5 18-2.2 18.3.3.3 6.9-.2 14.8-1.1 29-3.1 38.7-3.8 55.3-3.8 24.9-.1 35.9 2.3 43.2 9.4 10.6 10.3 4.8 40.2-28.7 147.8-24.5 78.5-32 108.1-32 125.7 0 6.1.4 7.6 2.3 9.9 2.1 2.4 2.7 2.6 6.5 1.9 18.9-3.2 49.3-44.1 90-121 18.1-34.3 18.7-35.7 21.6-50.5 5.1-26.6 12.2-46.5 20.5-57.8 4.5-6.1 11.4-10.2 16.9-10.2 10.8 0 15.9 13.3 18.3 47.4 1.5 20.8.6 55.3-2.8 113.1-3.1 52.3-3.8 107.7-1.5 115.5 3.9 12.8 10.3 10 19.2-8.4 6.6-13.6 13.4-34.1 30.1-90.6 25.6-86.6 38.5-121.2 54.3-145.5 6.6-10.1 15.1-19.3 22.1-24l5.5-3.6V0H75.5l-.1 19.8zm227.2 19c6.5 3.3 10.1 6.9 13.1 12.9 5.4 11.1 2.9 23.8-6.2 32.2-6.1 5.6-10.7 7.4-19 7.4s-12.9-1.8-19-7.4c-15.6-14.4-10.3-38.9 10.2-46.5 5.3-2 15.7-1.3 20.9 1.4zM45.4 28.8c-11.2 7.3-25.3 24.9-29.5 36.8-4.2 11.9-2 13.9 15.1 13.9 6.3-.1 14.5-.4 18.1-.9l6.6-.7 2.4-12.7c3.1-16.7 3.4-34.9.5-38.1-2.8-3.1-6.5-2.6-13.2 1.7z"/><path d="M74.3 90.7c-6.6.4-7.3.6-7.8 2.6-.3 1.2-1.6 7.8-3 14.7-11.3 55.7-32.8 130.8-56.1 196.2L0 324.9V426h258.8l-3.9-9.4c-7.3-17.8-13.1-44.8-16.5-78.1-1.4-13.1-1.8-25.7-1.9-54.7v-37.7l-3.3 6.7c-12.4 24.8-32.6 59.4-48.3 82.7-25.3 37.6-47.9 60.5-66.6 67.5-7.8 2.9-20.5 2.5-27.5-.9-9.3-4.4-15.7-13.3-19.4-26.6-2.2-8-3-34.1-1.5-47.7 4.6-40.7 15.5-82.2 43.6-166.3 9.6-28.6 17.7-53.9 18.1-56.1.8-5.6-.7-8.1-6.9-10.9-9.1-4.2-21.9-5.1-50.4-3.8zM36 93.2c-7.4.5-18.6.7-24.7.4L0 93.1l.1 96.2c0 52.9.2 95.7.4 95.2 1.9-4.9 12.2-38.5 19-62C29.4 188 39 151.6 45.9 122c6.3-26.8 6.8-30 5-29.9-.8.1-7.5.6-14.9 1.1zM396.1 198.5c-8.9 10.1-19.3 37.8-32.2 85.4-23.8 87.9-29.8 106.1-43.4 131.8l-5.4 10.3H426V361.3l-4.6-5.8c-12.2-15.8-20.6-37.7-24.9-65.1-3.6-22.7-2.9-60.5 1.5-84.9 1-5.5 1.7-10.1 1.5-10.3-.1-.1-1.6 1.3-3.4 3.3z"/></svg>