<?xml version="1.0" encoding="UTF-8"?>
<svg width="199px" height="58px" viewBox="0 0 199 58" version="1.1" xmlns="http://www.w3.org/2000/svg" xmlns:xlink="http://www.w3.org/1999/xlink">
    <!-- Generator: Sketch 53.2 (72643) - https://sketchapp.com -->
    <title>curious_logo</title>
    <desc>Created with Sketch.</desc>
    <g id="Symbols" stroke="none" stroke-width="1" fill="none" fill-rule="evenodd">
        <g id="Header" transform="translate(-60.000000, -41.000000)" fill="#FFFFFF">
            <g id="curious_logo">
                <path d="M240.466097,48.1369123 C240.109409,39.5429643 244.271572,43.41576 244.710202,49.5340202 C244.833115,51.2717323 244.577649,53.5298118 244.076358,56.037037 C242.056732,52.940062 240.552859,50.2152286 240.466097,48.1369123 M186.269184,52.8150593 C190.794592,52.7616436 193.879527,61.4683996 194.259259,70.6325273 C179.710166,74.3916558 178.122194,52.9152137 186.269184,52.8150593 M123.38735,53.379783 C123.09138,51.3342234 126.753456,46.2172806 127.455833,47.7149224 C127.862239,48.5824588 127.636949,50.6067104 127.155445,53.6750498 C125.052733,53.9581406 123.484534,54.0494602 123.38735,53.379783 M245.816784,57.4571154 C251.447588,63.9612435 259.101254,71.830132 258.687624,78.6662288 C258.074726,88.8189392 244.47928,101.04338 236.251966,98.7103779 C227.457043,96.2175386 233.939261,83.8978101 242.281304,79.8588572 C244.672508,78.8475821 244.832526,80.8732061 242.36886,81.8937026 C234.980884,84.955192 229.959958,95.9685621 237.033938,95.9685621 C241.900885,95.9685621 249.681357,89.4183272 250.333504,80.7348858 C250.689769,75.9889625 246.743678,71.2952935 242.679838,66.3495741 C238.395596,76.4992107 232.103589,86.2092961 228.90022,86.0986399 C221.485071,85.8435158 222.901074,64.0596046 222.901074,64.0596046 C222.901074,64.0596046 218.499084,81.6969804 209.577355,81.5217747 C204.4417,81.417266 203.215906,73.2409991 204.169972,66.3741644 C201.784806,68.3137225 199.547581,69.7368847 197.470373,70.7143482 C196.836341,81.3004622 191.274979,92.3230536 181.127456,91.6498948 C166.32433,90.6724313 168.667228,71.9991901 169.71187,68.3997884 C168.688362,68.8086018 167.541067,71.5073846 166.279042,75.0852698 C163.259845,84.8691261 160.753911,98.1232851 155.268029,98.1232851 C150.63356,98.1232851 148.704293,85.0781434 149.459092,74.3045286 C144.885008,82.8803875 138.167293,93.3281812 133.155425,93.2574841 C120.818984,93.0853522 137.134728,58.6497438 136.401063,57.3372378 C135.567764,55.8464523 132.189282,55.9755513 128.270363,56.2306754 C125.133417,72.2174288 115.683329,97.268773 112.123695,97.268773 C104.708545,97.268773 106.90954,68.0708935 106.90954,68.0708935 C106.90954,68.0708935 102.50755,85.7082692 93.5858212,85.5299897 C90.2888574,85.4654403 88.6071644,82.0658346 88.0697472,77.8270856 C83.9455233,85.1058075 77.4663252,94.0935535 70.573497,94.0935535 C50.4535641,94.0935535 61.7544208,41.0738437 81.8743537,41.1383932 C84.3168846,41.1476146 86.4484381,42.0789713 87.8644418,43.4314365 L87.8795377,43.4006986 C87.8795377,43.4006986 89.7695555,45.078985 89.6669027,47.1968226 C89.6336916,47.9007192 89.4253669,48.5124024 89.1385431,49.0410933 C89.1264664,49.059536 89.1264664,49.0810525 89.1174088,49.102569 C89.0358904,49.259332 88.9694681,49.3576931 88.9121033,49.4222426 C88.1965535,50.4611818 87.1337959,51.0298319 86.4423997,50.97143 C84.796937,50.8269621 86.0408464,47.4242826 87.013028,45.2296004 C86.264267,44.4089 85.1320679,43.8002906 83.3386645,43.8341023 C73.9248064,44.0000866 60.9573526,91.3824755 70.9388199,91.4992793 C77.2730965,91.5730502 83.8911777,81.816858 87.8885953,74.6733827 C87.8765185,68.0647459 90.098648,60.9181968 93.1782296,61.1118452 C98.8573403,61.4653305 94.0477585,81.2266914 97.0035529,81.2266914 C103.201966,81.2266914 104.80516,59.9991352 109.9227,59.3413453 C117.280484,58.3976935 110.155178,92.1386265 113.165318,92.1386265 C116.613241,92.1386265 123.777797,68.7471261 126.540363,56.3444054 C123.010921,56.5687917 119.285231,56.7224809 116.700798,55.8034193 C110.734864,53.6794342 119.098041,43.0195494 127.41895,43.2377881 C130.027536,43.3084851 129.773924,47.9683425 128.590398,54.5062822 C134.390277,53.8761564 141.94129,52.9417259 143.179161,55.3915322 C145.208062,59.3997472 132.180224,88.0965998 135.878741,88.5976267 C139.374972,89.0740633 145.974938,77.4889693 149.960279,69.7799177 C150.775462,64.6067383 152.339407,60.6938105 154.652112,60.315735 C160.79316,59.3106075 153.34178,97.268773 157.876615,93.5833053 C160.207436,91.689854 163.024347,78.8721724 166.167332,70.8957015 C168.905744,63.4725118 171.692464,60.358768 175.161522,60.3341778 C179.711452,60.3065137 169.59714,90.4726353 183.675659,89.7041892 C190.553391,89.3291875 193.325014,80.7963615 193.312938,72.1774696 C178.244122,75.4602715 174.035361,53.6732866 185.58983,52.1363943 C193.699395,51.057496 197.582083,59.5104035 197.530757,68.8700775 C199.653253,67.8096218 201.99615,66.2696557 204.55643,64.1979249 C205.444074,60.1282342 207.116709,56.9714574 209.169764,57.1005564 C214.848874,57.4540416 210.039292,77.2154025 212.995087,77.2154025 C219.1935,77.2154025 220.799713,55.9878464 225.914233,55.3300565 C233.272018,54.3864046 228.667742,80.4367287 231.677882,80.4367287 C233.347498,80.4367287 238.015178,72.8598498 241.444986,64.8341983 C238.151041,60.7614338 235.059383,56.5011684 234.43139,51.884344 C233.012367,41.4457717 246.598756,35.0738163 247.109001,49.0564622 C247.193538,51.371022 246.689332,54.2941911 245.816784,57.4571154 Z M156.666667,56.037037 C154.886186,56.037037 153.444444,54.5938445 153.444444,52.8148148 C153.444444,51.0357851 154.886186,49.5925926 156.666667,49.5925926 C158.447147,49.5925926 159.888889,51.0357851 159.888889,52.8148148 C159.888889,54.5938445 158.447147,56.037037 156.666667,56.037037 Z"></path>
            </g>
        </g>
    </g>
</svg>