<?xml version="1.0" encoding="UTF-8"?>
<svg width="30px" height="30px" viewBox="0 0 30 30" version="1.1" xmlns="http://www.w3.org/2000/svg" xmlns:xlink="http://www.w3.org/1999/xlink">
    <!-- Generator: Sketch 49 (51002) - http://www.bohemiancoding.com/sketch -->
    <title>Shape</title>
    <desc>Created with Sketch.</desc>
    <defs></defs>
    <g id="Page-1" stroke="none" stroke-width="1" fill="none" fill-rule="evenodd" opacity="0.835541214">
        <g id="Coaching" transform="translate(-495.000000, -501.000000)" fill="#FF6B6B" fill-rule="nonzero">
            <g id="Group-10">
                <path d="M520,515.970845 C520,515.640428 519.883721,515.329446 519.651163,515.09621 L517.887597,513.327502 C517.655039,513.094266 517.344961,512.977648 517.015504,512.977648 C516.686047,512.977648 516.375969,513.094266 516.143411,513.327502 L512.48062,517.000972 L512.48062,507.243926 C512.48062,506.563654 511.918605,506 511.24031,506 L508.75969,506 C508.081395,506 507.51938,506.563654 507.51938,507.243926 L507.51938,517.000972 L503.856589,513.327502 C503.624031,513.094266 503.313953,512.958212 502.984496,512.958212 C502.655039,512.958212 502.344961,513.094266 502.112403,513.327502 L500.348837,515.09621 C500.116279,515.329446 500,515.640428 500,515.970845 C500,516.301263 500.116279,516.612245 500.348837,516.845481 L509.127907,525.650146 C509.360465,525.883382 509.670543,526 510,526 C510.329457,526 510.639535,525.883382 510.872093,525.650146 L519.651163,516.845481 C519.883721,516.612245 520,516.301263 520,515.970845 Z M525,516 C525,524.28125 518.28125,531 510,531 C501.71875,531 495,524.28125 495,516 C495,507.71875 501.71875,501 510,501 C518.28125,501 525,507.71875 525,516 Z" id="Shape"></path>
            </g>
        </g>
    </g>
</svg>