<?xml version="1.0" encoding="UTF-8"?>
<svg width="68px" height="91px" viewBox="0 0 68 91" version="1.1" xmlns="http://www.w3.org/2000/svg" xmlns:xlink="http://www.w3.org/1999/xlink">
    <!-- Generator: Sketch 49 (51002) - http://www.bohemiancoding.com/sketch -->
    <title>Bulb</title>
    <desc>Created with Sketch.</desc>
    <defs></defs>
    <g id="Page-1" stroke="none" stroke-width="1" fill="none" fill-rule="evenodd">
        <g id="Coaching" transform="translate(-278.000000, -818.000000)">
            <g id="Group-9" transform="translate(116.000000, 707.000000)">
                <g id="Bulb" transform="translate(162.000000, 111.000000)">
                    <path d="M54.7318321,44 C51.57601,62.0838127 46.3246289,66 35.9533593,66 C25.5804253,66 19.4735101,61.0862777 17.1732221,44 C15.552035,31.957272 25.5804253,22 35.9533593,22 C46.3246289,22 56.8223977,32.0295809 54.7318321,44" id="Fill-1" fill="#4ECDC4"></path>
                    <path d="M35.9867704,90 L35.0114786,90 C32.7964981,90 31,88.4031128 31,86.4326848 L31,86 L40,86 L40,86.4326848 C40,88.4031128 38.2035019,90 35.9867704,90" id="Fill-3" fill="#4ECDC4"></path>
                    <path d="M54.8667892,46.0008364 L54.8833885,46.0008364 L54.8667892,46.0008364 Z M34.4478923,22.6946034 C29.1012322,22.6946034 23.6151372,25.3360434 19.7757007,29.7607481 C15.8283683,34.3092442 14.0854334,40.037104 14.8639443,45.8887551 C17.4551075,65.3239988 24.5679416,69.3070695 34.4478923,69.3070695 C44.9752189,69.3070695 50.5924489,65.7974171 54.0384801,45.8552979 C54.9995842,40.2897052 53.452522,34.7374954 49.6828029,30.2191107 C45.7520698,25.5083476 40.0568227,22.6946034 34.4478923,22.6946034 Z M34.4478923,71 C21.7111884,71 15.5544785,63.7899896 13.1973666,46.1129178 C12.3524582,39.769447 14.2381477,33.566496 18.510828,28.644953 C22.6639928,23.8572384 28.6215101,21 34.4478923,21 C40.5465044,21 46.7247935,24.0379069 50.9709148,29.1284084 C55.0659817,34.0365686 56.744179,40.0789254 55.6950982,46.1463749 C52.0648139,67.1557764 45.6906521,71 34.4478923,71 Z" id="Fill-5" fill="#2F302F"></path>
                    <path d="M40.8915366,80 L27.1084634,80 C24.8389482,80 23,78.0024969 23,75.5412877 L23,74.4587123 C23,71.9957196 24.8389482,70 27.1084634,70 L40.8915366,70 C43.1610518,70 45,71.9957196 45,74.4587123 L45,75.5412877 C45,78.0024969 43.1610518,80 40.8915366,80" id="Fill-7" fill="#FFFFFF"></path>
                    <path d="M28.033571,70.7516869 C26.2294594,70.7516869 24.7625805,72.2081272 24.7625805,73.9994002 L24.7625805,75.0022492 C24.7625805,76.7935223 26.2294594,78.2499625 28.033571,78.2499625 L41.966429,78.2499625 C43.7705406,78.2499625 45.2374195,76.7935223 45.2374195,75.0022492 L45.2374195,73.9994002 C45.2374195,72.2081272 43.7705406,70.7516869 41.966429,70.7516869 L28.033571,70.7516869 Z M41.966429,80 L28.033571,80 C25.2576313,80 23,77.7584345 23,75.0022492 L23,73.9994002 C23,71.2432149 25.2576313,69 28.033571,69 L41.966429,69 C44.7423687,69 47,71.2432149 47,73.9994002 L47,75.0022492 C47,77.7584345 44.7423687,80 41.966429,80 Z" id="Fill-9" fill="#2F302F"></path>
                    <path d="M40.2000819,86 L29.7982797,86 C28.2533279,86 27,84.6826568 27,83.0587946 L27,81.9412054 C27,80.3173432 28.2533279,79 29.7982797,79 L40.2000819,79 C41.7450338,79 43,80.3173432 43,81.9412054 L43,83.0587946 C43,84.6826568 41.7450338,86 40.2000819,86" id="Fill-11" fill="#FFFFFF"></path>
                    <path d="M29.7227046,79.6571094 C28.6436357,79.6571094 27.7640865,80.480983 27.7640865,81.493661 L27.7640865,82.506339 C27.7640865,83.519017 28.6436357,84.3428906 29.7227046,84.3428906 L40.2789581,84.3428906 C41.358027,84.3428906 42.2359135,83.519017 42.2359135,82.506339 L42.2359135,81.493661 C42.2359135,80.480983 41.358027,79.6571094 40.2789581,79.6571094 L29.7227046,79.6571094 Z M40.2789581,86 L29.7227046,86 C27.6709773,86 26,84.4333918 26,82.506339 L26,81.493661 C26,79.5681685 27.6709773,78 29.7227046,78 L40.2789581,78 C42.3306854,78 44,79.5681685 44,81.493661 L44,82.506339 C44,84.4333918 42.3306854,86 40.2789581,86 Z" id="Fill-13" fill="#2F302F"></path>
                    <path d="M30.559884,86.5968018 C30.7157066,88.1713307 32.0053875,89.4031982 33.5685868,89.4031982 L36.4280978,89.4031982 C37.9912971,89.4031982 39.2842934,88.1713307 39.4384584,86.5968018 L30.559884,86.5968018 Z M36.4280978,91 L33.5685868,91 C31.0489018,91 29,88.8806396 29,86.2764135 L29,85 L41,85 L41,86.2764135 C41,88.8806396 38.9494405,91 36.4280978,91 Z" id="Fill-15" fill="#2F302F"></path>
                    <path d="M35,69 L33.3015075,69 L33.3015075,54.8647226 L28,50.8582422 L32.0368509,45 L34.6214405,46.6670717 C35.0117253,46.9181855 35.1172529,47.4285136 34.8576214,47.8043742 C34.5979899,48.181855 34.0703518,48.2823005 33.680067,48.0328068 L32.5092127,47.2762252 L30.2864322,50.5034427 L35,54.0643985 L35,69 Z" id="Fill-18" fill="#2F302F"></path>
                    <path d="M35.8490431,70 C35.3818182,70 35,69.6295692 35,69.174282 L35,54.1302219 L39.7141148,50.5417755 L37.4901914,47.2927546 L36.3196172,48.0531984 C35.9294258,48.3061358 35.4019139,48.2049608 35.1423445,47.8247389 C34.8827751,47.444517 34.9882775,46.9321149 35.3784689,46.6775457 L37.9624402,45 L42,50.9007833 L36.6980861,54.9363577 L36.6980861,69.174282 C36.6980861,69.6295692 36.3162679,70 35.8490431,70" id="Fill-20" fill="#2F302F"></path>
                    <path d="M33.5,11 C33.2244656,11 33,10.6988934 33,10.3273151 L33,0.672684916 C33,0.301106581 33.2244656,0 33.5,0 C33.7755344,0 34,0.301106581 34,0.672684916 L34,10.3273151 C34,10.6988934 33.7755344,11 33.5,11" id="Fill-22" fill="#2F302F"></path>
                    <path d="M45.7154234,16 C45.6322274,16 45.5473334,15.9876712 45.4675331,15.9599315 C45.0973956,15.8351028 44.9072333,15.4606167 45.0447614,15.126199 L48.6153998,6.42363428 C48.7529279,6.08767552 49.1689082,5.91507286 49.533952,6.04144267 C49.9040895,6.16627138 50.092554,6.53921642 49.9550259,6.87517518 L46.3860854,15.5777399 C46.2774212,15.8397261 46.0057606,16 45.7154234,16" id="Fill-24" fill="#2F302F"></path>
                    <path d="M55.7099796,25 C55.5175242,25 55.3233806,24.925051 55.1832596,24.7751529 C54.9198996,24.4949087 54.9435344,24.0615079 55.2339057,23.8073329 L62.8139466,17.1776029 C63.1043179,16.9234279 63.5533804,16.9446092 63.8167404,17.2248534 C64.0801004,17.5050975 64.0564656,17.9384984 63.7660943,18.1926734 L56.1860534,24.8224034 C56.050997,24.9413442 55.8804883,25 55.7099796,25" id="Fill-26" fill="#2F302F"></path>
                    <path d="M59.672972,39 C59.4636002,39 59.257425,38.9000484 59.1263679,38.7132535 C58.9090048,38.4035673 58.9793282,37.9726282 59.2813989,37.7514238 L66.9354549,32.1295537 C67.2343291,31.9067107 67.6562691,31.978807 67.8736321,32.2884932 C68.0909952,32.5981794 68.0206718,33.0274799 67.7186011,33.2503229 L60.0645451,38.8705544 C59.946274,38.9590362 59.8088239,39 59.672972,39" id="Fill-28" fill="#2F302F"></path>
                    <path d="M21.2843643,16 C20.9956393,16 20.7221997,15.8397062 20.6152016,15.5776875 L17.045202,6.87404167 C16.907633,6.53804118 17.0944551,6.16504981 17.4647024,6.04020559 C17.8332514,5.91690265 18.2459583,6.08644419 18.3835273,6.42244468 L21.9552253,15.1260905 C22.0927943,15.4605497 21.9025755,15.8350823 21.5323281,15.9599265 C21.4525041,15.9876697 21.367585,16 21.2843643,16" id="Fill-31" fill="#2F302F"></path>
                    <path d="M12.3223288,24 C12.1613633,24 12.0003977,23.9461421 11.8716253,23.8353486 L5.225358,18.129484 C4.94688761,17.8894315 4.92274277,17.4801111 5.17384902,17.2154377 C5.42173596,16.9492256 5.85151396,16.9261436 6.1283747,17.1661962 L12.774642,22.8720608 C13.0531124,23.1105745 13.0772572,23.5198949 12.826151,23.7845682 C12.6925496,23.9276765 12.5074392,24 12.3223288,24" id="Fill-33" fill="#2F302F"></path>
                    <path d="M8.32602008,39 C8.19174572,39 8.05427435,38.9590335 7.93598503,38.8705459 L0.280747855,33.2499453 C-0.0213694611,33.0270877 -0.0901051468,32.597759 0.125692936,32.2880524 C0.341491019,31.9799845 0.761897654,31.9062449 1.06401497,32.1291025 L8.71925215,37.7513418 C9.02136946,37.9725608 9.09010515,38.4035281 8.87430706,38.7132347 C8.74322971,38.9000418 8.53702265,39 8.32602008,39" id="Fill-35" fill="#2F302F"></path>
                    <path d="M49.3346244,51 C49.3138128,51 49.2930011,50.9983517 49.2721895,50.995055 C49.0599109,50.9538468 48.9156169,50.7148392 48.9516904,50.4626449 C49.5177667,46.3418237 49.1944928,41.8962819 48.0193295,37.6056829 C47.9527323,37.3617302 48.0637276,37.1012943 48.2676816,37.0221746 C48.4771853,36.9447031 48.6922388,37.0765694 48.758836,37.3188737 C49.9728477,41.7495806 50.3044463,46.3467687 49.7175583,50.6126428 C49.6870346,50.8384638 49.5233165,51 49.3346244,51" id="Fill-38" fill="#2F302F"></path>
                    <path d="M46.4811767,58 C46.4005116,58 46.3181301,57.9819245 46.2426138,57.9442673 C46.0126324,57.8297893 45.9319673,57.5722138 46.0624045,57.3688647 C46.5258,56.651871 46.8930838,56.0433301 47.1762699,55.3971319 C47.5092281,54.7705155 47.7855491,54.1137733 48.0584376,53.3033896 C48.1322376,53.0789525 48.3982609,52.9494116 48.6557028,53.0187009 C48.9097122,53.0849777 49.055596,53.3199588 48.9800797,53.5443959 C48.693461,54.3954494 48.4016935,55.0898489 48.0618701,55.7270093 C47.7701026,56.3958018 47.3839397,57.0374811 46.8999489,57.7861069 C46.8107024,57.9231792 46.6493721,58 46.4811767,58" id="Fill-40" fill="#2F302F"></path>
                    <path d="M39.5706838,77 L35.4293162,77 C35.191659,77 35,76.7771836 35,76.5008913 C35,76.2245989 35.191659,76 35.4293162,76 L39.5706838,76 C39.808341,76 40,76.2245989 40,76.5008913 C40,76.7771836 39.808341,77 39.5706838,77" id="Fill-42" fill="#2F302F"></path>
                </g>
            </g>
        </g>
    </g>
</svg>