<?xml version="1.0" encoding="UTF-8"?>
<svg width="125px" height="79px" viewBox="0 0 125 79" version="1.1" xmlns="http://www.w3.org/2000/svg" xmlns:xlink="http://www.w3.org/1999/xlink">
    <!-- Generator: Sketch 49 (51002) - http://www.bohemiancoding.com/sketch -->
    <title>Chat</title>
    <desc>Created with Sketch.</desc>
    <defs></defs>
    <g id="Page-1" stroke="none" stroke-width="1" fill="none" fill-rule="evenodd">
        <g id="Coaching" transform="translate(-249.000000, -1041.000000)">
            <g id="Group-9" transform="translate(116.000000, 707.000000)">
                <g id="Chat" transform="translate(134.000000, 335.000000)">
                    <path d="M112.774729,47 L59.6556364,47 C57.0838882,47 55.0000373,44.9212102 55.0000373,42.355708 L55.0000373,9.48796007 C55.0000373,4.24553961 54.9353762,0 60.1876209,0 L114.062073,0 C118.999829,0 123,3.9904554 123,8.91328759 L123,36.7995633 C123,42.4319401 118.423758,47 112.774729,47" id="Fill-1" fill="#4ECDC4"></path>
                    <path d="M51.3101634,64 L8.26336195,64 C4.80600942,64 2,61.1608369 2,57.6626348 L2,27.4998365 C2,22.8041844 5.76266962,19 10.4005816,19 L50.0685406,19 C58.2801163,19 65,25.7992808 65,34.1078784 L65,50.1484145 C65,57.7656097 58.8413182,64 51.3101634,64" id="Fill-3" fill="#4ECDC4"></path>
                    <path d="M111.340081,0 L62.659919,0 C56.2207287,0 51,5.5270551 51,12.3410327 L51,37.0260164 C51,43.8370759 56.2207287,49.364131 62.659919,49.364131 L93.9551417,49.364131 L107.14834,59 L108.885668,49.364131 C115.324858,49.364131 123,43.8370759 123,37.0260164 L123,12.3410327 C123,5.5270551 117.779271,0 111.340081,0 Z" id="Stroke-5" stroke="#2F302F" stroke-width="0.866" stroke-linecap="round" stroke-linejoin="round"></path>
                    <path d="M11.4963888,18 L59.5036112,18 C65.8544745,18 71,23.5273285 71,30.3416432 L71,55.0249295 C71,61.8392442 65.8544745,67.3636544 59.5036112,67.3636544 L26.2227295,67.3636544 L13.211564,77 L11.4963888,67.3636544 C5.14847252,67.3636544 0,65.2011673 0,55.0249295 L0,30.3416432 C0,23.5273285 5.14847252,18 11.4963888,18 Z" id="Stroke-7" stroke="#2F302F" stroke-width="0.855" stroke-linecap="round" stroke-linejoin="round"></path>
                    <path d="M107,38 L95,38 L95,27.8347746 C95,24.6112236 97.6858441,22 101.001514,22 C104.314156,22 107,24.6112236 107,27.8347746 L107,38 Z" id="Fill-9" fill="#FFFFFF"></path>
                    <path d="M104,14.5014297 C104,17.5380816 102.208913,20 100.001426,20 C97.7910873,20 96,17.5380816 96,14.5014297 C96,11.4647777 97.7910873,9 100.001426,9 C102.208913,9 104,11.4647777 104,14.5014297" id="Fill-11" fill="#FFFFFF"></path>
                    <path d="M106,38 L90,38 L90,29.9985281 C90,25.5827047 93.5827047,22 98.0014719,22 C102.417295,22 106,25.5827047 106,29.9985281 L106,38 Z" id="Stroke-13" stroke="#2F302F" stroke-width="0.711" stroke-linecap="round" stroke-linejoin="round"></path>
                    <path d="M104,14.5014297 C104,17.5380816 101.538082,20 98.5014297,20 C95.4647777,20 93,17.5380816 93,14.5014297 C93,11.4647777 95.4647777,9 98.5014297,9 C101.538082,9 104,11.4647777 104,14.5014297 Z" id="Stroke-15" stroke="#2F302F" stroke-width="0.711" stroke-linecap="round" stroke-linejoin="round"></path>
                    <path d="M30,59 L18,59 L18,48.8337013 C18,45.6136865 20.6858441,43 24.001514,43 C27.3111279,43 30,45.6136865 30,48.8337013 L30,59 Z" id="Fill-17" fill="#FFFFFF"></path>
                    <path d="M28,35.4985703 C28,38.5352223 26.209551,41 24.002851,41 C21.790449,41 20,38.5352223 20,35.4985703 C20,32.4619184 21.790449,30 24.002851,30 C26.209551,30 28,32.4619184 28,35.4985703" id="Fill-19" fill="#FFFFFF"></path>
                    <path d="M31,59 L15,59 L15,51 C15,46.5820456 18.5827047,43 23.0014719,43 C27.4202392,43 31,46.5820456 31,51 L31,59 Z" id="Stroke-21" stroke="#2F302F" stroke-width="0.711" stroke-linecap="round" stroke-linejoin="round"></path>
                    <path d="M28,35.4985703 C28,38.5352223 25.540941,41 22.5014297,41 C19.4647777,41 17,38.5352223 17,35.4985703 C17,32.4619184 19.4647777,30 22.5014297,30 C25.540941,30 28,32.4619184 28,35.4985703 Z" id="Stroke-23" stroke="#2F302F" stroke-width="0.711" stroke-linecap="round" stroke-linejoin="round"></path>
                    <path d="M62,7 L78,7" id="Stroke-25" stroke="#2F302F" stroke-width="0.489" stroke-linecap="round" stroke-linejoin="round"></path>
                    <path d="M43,61 L59,61" id="Stroke-27" stroke="#2F302F" stroke-width="0.489" stroke-linecap="round" stroke-linejoin="round"></path>
                </g>
            </g>
        </g>
    </g>
</svg>