<?xml version="1.0" encoding="UTF-8"?>
<svg width="158px" height="37px" viewBox="0 0 158 37" version="1.1" xmlns="http://www.w3.org/2000/svg" xmlns:xlink="http://www.w3.org/1999/xlink">
    <!-- Generator: Sketch 50.2 (55047) - http://www.bohemiancoding.com/sketch -->
    <title>curious_logo</title>
    <desc>Created with Sketch.</desc>
    <defs></defs>
    <g id="curious_logo" stroke="none" stroke-width="1" fill="none" fill-rule="evenodd">
        <path d="M18.6391,4.991 C16.8061,4.227 14.9721,3.871 13.4451,3.871 C8.0971,3.871 5.0931,8.658 5.0931,13.597 C5.0931,18.231 7.5881,23.324 13.7501,23.324 C15.3801,23.324 17.4171,22.815 18.8931,21.847 L19.2501,26.126 C17.2641,27.042 14.9721,27.195 13.2411,27.195 C5.3981,27.195 0.0001,21.033 0.0001,13.597 C0.0001,5.704 5.2961,0 13.2411,0 C15.1761,0 17.6711,0.459 19.0461,1.018 L18.6391,4.991 Z" id="Fill-1" fill="#BBBBBB"></path>
        <path d="M47.1112,26.5838 L42.4772,26.5838 L42.4772,22.4588 L42.3752,22.4588 C40.9492,25.4118 37.4862,27.1948 33.8702,27.1948 C27.1482,27.1948 24.1432,23.0188 24.1432,16.0418 L24.1432,0.6108 L28.9302,0.6108 L28.9302,14.0558 C28.9302,20.1158 30.2552,23.0698 34.4302,23.3238 C39.8802,23.3238 42.3242,18.9448 42.3242,12.6298 L42.3242,0.6108 L47.1112,0.6108 L47.1112,26.5838 Z" id="Fill-4" fill="#BBBBBB"></path>
        <path d="M54.3192,0.6111 L58.8002,0.6111 L58.8002,4.6341 L58.9022,4.6341 C60.1752,1.9351 62.9252,0.0001 65.6752,0.0001 C67.1012,0.0001 67.8142,0.1531 68.8332,0.3561 L68.8332,4.6341 C67.9672,4.2781 66.9992,4.1751 66.1852,4.1751 C61.9072,4.1751 59.1062,8.2501 59.1062,14.7681 L59.1062,26.5841 L54.3192,26.5841 L54.3192,0.6111 Z" id="Fill-6" fill="#BBBBBB"></path>
        <polygon id="Fill-9" fill="#BBBBBB" points="73.467 26.5843 78.254 26.5843 78.254 0.6113 73.467 0.6113"></polygon>
        <path d="M96.5805,23.324 C102.1825,23.324 104.6775,18.231 104.6775,13.597 C104.6775,8.658 101.6735,3.871 96.5805,3.871 C91.4375,3.871 88.4325,8.658 88.4325,13.597 C88.4325,18.231 90.9275,23.324 96.5805,23.324 M96.5805,0 C104.4745,0 109.7705,5.704 109.7705,13.597 C109.7705,21.033 104.3725,27.195 96.5805,27.195 C88.7385,27.195 83.3395,21.033 83.3395,13.597 C83.3395,5.704 88.6365,0 96.5805,0" id="Fill-11" fill="#BBBBBB"></path>
        <path d="M137.8803,26.5838 L133.2463,26.5838 L133.2463,22.4588 L133.1443,22.4588 C131.7183,25.4118 128.2553,27.1948 124.6393,27.1948 C117.9173,27.1948 114.9123,23.0188 114.9123,16.0418 L114.9123,0.6108 L119.7003,0.6108 L119.7003,14.0558 C119.7003,20.1158 121.0243,23.0698 125.1993,23.3238 C130.6493,23.3238 133.0933,18.9448 133.0933,12.6298 L133.0933,0.6108 L137.8803,0.6108 L137.8803,26.5838 Z" id="Fill-12" fill="#BBBBBB"></path>
        <path d="M145.9398,33.6697 C145.9398,31.9307 147.3498,30.5207 149.0888,30.5207 C150.8278,30.5207 152.2378,31.9307 152.2378,33.6697 C152.2378,35.4077 150.8278,36.8177 149.0888,36.8177 C147.3498,36.8177 145.9398,35.4077 145.9398,33.6697" id="Fill-13" fill="#BBBBBB"></path>
        <path d="M146.8363,7.0281 C146.8363,4.8881 148.9753,3.8711 151.4193,3.8711 C152.5403,3.8711 155.3923,4.5331 156.4613,5.1941 L156.8693,1.0181 C154.9843,0.4591 153.1513,0.0001 150.9103,0.0001 C145.7673,0.0001 141.7433,2.5971 141.7433,7.9961 C141.7433,15.2781 152.9983,14.8711 152.9983,19.6071 C152.9983,22.4081 150.2993,23.3241 148.1093,23.3241 C147.7333,23.3241 147.2573,23.2781 146.7273,23.1861 L146.7273,27.0991 C147.4913,27.1701 148.2613,27.1951 149.0263,27.1951 C153.6603,27.1951 158.0913,24.6481 158.0913,19.0971 C158.0913,10.7971 146.8363,12.3241 146.8363,7.0281" id="Fill-14" fill="#BBBBBB"></path>
    </g>
</svg>