<?xml version="1.0" encoding="UTF-8"?>
<svg width="100px" height="30px" viewBox="0 0 100 30" version="1.1" xmlns="http://www.w3.org/2000/svg" xmlns:xlink="http://www.w3.org/1999/xlink">
    <!-- Generator: Sketch 49 (51002) - http://www.bohemiancoding.com/sketch -->
    <title>Ditch Logo Copy</title>
    <desc>Created with Sketch.</desc>
    <defs></defs>
    <g id="Symbols" stroke="none" stroke-width="1" fill="none" fill-rule="evenodd">
        <g id="Footer" fill="#B4B4B4">
            <g id="Ditch-Logo-Copy">
                <g>
                    <path d="M56,18.5 C56,12.148724 61.1806959,7 67.5714114,7 L74,7 L74,12.75 L67.5714114,12.75 C64.3761735,12.75 61.7859454,15.3244811 61.7859454,18.5 C61.7859454,21.6757571 64.3761735,24.25 67.5714114,24.25 L74,24.25 L74,30 L67.5714114,30 C61.1806959,30 56,24.851276 56,18.5" id="Fill-1"></path>
                    <path d="M78,0 L78,30 L83.823721,30 L83.823721,12.3913202 L88.3527993,12.3913202 C91.5691397,12.3913202 94.1765203,15.0193326 94.1765203,18.2608801 L94.1765203,30 L100,30 L100,18.130051 C100,11.7189362 94.8436256,6.52176028 88.4826013,6.52176028 L83.823721,6.52176028 L83.823721,0 L78,0 Z" id="Fill-3"></path>
                    <path d="M17.25,24.1301969 L11.5,24.1301969 C8.32448109,24.1301969 5.75,21.5024277 5.75,18.260637 C5.75,15.0190894 8.32448109,12.3913202 11.5,12.3913202 L17.25,12.3913202 L17.25,24.1301969 Z M17.25,0 L17.25,6.5215171 L11.4971413,6.5215171 C5.14753283,6.5215171 0,11.7760827 0,18.257962 L0,18.5325087 C0,24.8658069 5.02937399,30 11.2336662,30 L23,30 L23,0 L17.25,0 Z" id="Fill-6"></path>
                    <path d="M50.5199714,24.1301969 C47.3388718,24.1301969 44.7598664,21.5024277 44.7598664,18.260637 L44.7598664,12.3913202 L52.1200668,12.3913202 L52.1200668,6.52176028 L44.7598664,6.5215171 L44.7598664,0 L39,3.80474519 L39,18.3773619 C39,24.7962583 44.1064642,30 50.4056618,30 L55,30 L55,24.1301969 L50.5199714,24.1301969 Z" id="Fill-9"></path>
                    <polygon id="Fill-12" points="28 10.6691681 28 29 34 29 34 7"></polygon>
                    <polygon id="Fill-15" points="36 0 28 0 28 5"></polygon>
                </g>
            </g>
        </g>
    </g>
</svg>